HispaMaster-Medium.ufo
<glyph name="two" format="2">
  <advance width="497"/>
  <unicode hex="0032"/>
  <outline>
    <contour>
      <point x="49" y="0" type="line"/>
      <point x="457" y="0" type="line"/>
      <point x="457" y="80" type="line"/>
      <point x="90" y="80" type="line"/>
      <point x="102" y="60" type="line"/>
      <point x="152" y="107"/>
      <point x="200" y="153"/>
      <point x="232" y="185" type="curve" smooth="yes"/>
      <point x="385" y="335"/>
      <point x="428" y="403"/>
      <point x="428" y="490" type="curve" smooth="yes"/>
      <point x="428" y="590"/>
      <point x="372" y="660"/>
      <point x="244" y="660" type="curve" smooth="yes"/>
      <point x="144" y="660"/>
      <point x="55" y="611"/>
      <point x="44" y="506" type="curve"/>
      <point x="55" y="486"/>
      <point x="72" y="474"/>
      <point x="94" y="474" type="curve" smooth="yes"/>
      <point x="122" y="474"/>
      <point x="138" y="493"/>
      <point x="151" y="541" type="curve" smooth="yes"/>
      <point x="175" y="629" type="line"/>
      <point x="119" y="593" type="line"/>
      <point x="156" y="610"/>
      <point x="197" y="615"/>
      <point x="221" y="615" type="curve" smooth="yes"/>
      <point x="294" y="615"/>
      <point x="342" y="563"/>
      <point x="342" y="481" type="curve" smooth="yes"/>
      <point x="342" y="403"/>
      <point x="297" y="320"/>
      <point x="197" y="215" type="curve" smooth="yes"/>
      <point x="154" y="170"/>
      <point x="102" y="116"/>
      <point x="49" y="64" type="curve"/>
    </contour>
  </outline>
</glyph>
<glyph name="three" format="2">
  <advance width="497"/>
  <unicode hex="0033"/>
  <outline>
    <contour>
      <point x="169" y="366" type="line"/>
      <point x="169" y="316" type="line"/>
      <point x="218" y="316" type="line" smooth="yes"/>
      <point x="321" y="316"/>
      <point x="372" y="263"/>
      <point x="372" y="176" type="curve" smooth="yes"/>
      <point x="372" y="86"/>
      <point x="322" y="32"/>
      <point x="223" y="32" type="curve" smooth="yes"/>
      <point x="200" y="32"/>
      <point x="168" y="35"/>
      <point x="133" y="49" type="curve"/>
      <point x="173" y="13" type="line"/>
      <point x="152" y="89" type="line" smooth="yes"/>
      <point x="138" y="138"/>
      <point x="127" y="160"/>
      <point x="94" y="160" type="curve" smooth="yes"/>
      <point x="72" y="160"/>
      <point x="56" y="150"/>
      <point x="44" y="128" type="curve"/>
      <point x="62" y="28"/>
      <point x="138" y="-13"/>
      <point x="234" y="-13" type="curve" smooth="yes"/>
      <point x="368" y="-13"/>
      <point x="457" y="70"/>
      <point x="457" y="179" type="curve" smooth="yes"/>
      <point x="457" y="271"/>
      <point x="395" y="336"/>
      <point x="267" y="347" type="curve"/>
      <point x="267" y="330" type="line"/>
      <point x="372" y="353"/>
      <point x="436" y="419"/>
      <point x="436" y="503" type="curve" smooth="yes"/>
      <point x="436" y="596"/>
      <point x="361" y="660"/>
      <point x="246" y="660" type="curve" smooth="yes"/>
      <point x="155" y="660"/>
      <point x="80" y="618"/>
      <point x="61" y="533" type="curve"/>
      <point x="70" y="505"/>
      <point x="89" y="496"/>
      <point x="111" y="496" type="curve" smooth="yes"/>
      <point x="146" y="496"/>
      <point x="157" y="517"/>
      <point x="169" y="560" type="curve" smooth="yes"/>
      <point x="188" y="629" type="line"/>
      <point x="145" y="601" type="line"/>
      <point x="180" y="612"/>
      <point x="209" y="615"/>
      <point x="230" y="615" type="curve" smooth="yes"/>
      <point x="309" y="615"/>
      <point x="354" y="573"/>
      <point x="354" y="500" type="curve" smooth="yes"/>
      <point x="354" y="415"/>
      <point x="300" y="366"/>
      <point x="209" y="366" type="curve" smooth="yes"/>
    </contour>
  </outline>
</glyph>
<glyph name="four" format="2">
  <advance width="497"/>
  <unicode hex="0034"/>
  <outline>
    <contour>
      <point x="482" y="197" type="line"/>
      <point x="482" y="257" type="line"/>
      <point x="72" y="257" type="line"/>
      <point x="73" y="242" type="line"/>
      <point x="325" y="591" type="line"/>
      <point x="297" y="591" type="line"/>
      <point x="297" y="0" type="line"/>
      <point x="377" y="0" type="line"/>
      <point x="377" y="655" type="line"/>
      <point x="322" y="655" type="line"/>
      <point x="24" y="247" type="line"/>
      <point x="24" y="197" type="line"/>
    </contour>
  </outline>
</glyph>
<glyph name="five" format="2">
  <advance width="497"/>
  <unicode hex="0035"/>
  <outline>
    <contour>
      <point x="99" y="365" type="line"/>
      <point x="142" y="365" type="line"/>
      <point x="159" y="612" type="line"/>
      <point x="132" y="567" type="line"/>
      <point x="437" y="567" type="line"/>
      <point x="437" y="647" type="line"/>
      <point x="112" y="647" type="line"/>
      <point x="91" y="343" type="line"/>
      <point x="119" y="336" type="line"/>
      <point x="150" y="343"/>
      <point x="183" y="347"/>
      <point x="211" y="347" type="curve" smooth="yes"/>
      <point x="309" y="347"/>
      <point x="370" y="292"/>
      <point x="370" y="192" type="curve" smooth="yes"/>
      <point x="370" y="95"/>
      <point x="317" y="32"/>
      <point x="218" y="32" type="curve" smooth="yes"/>
      <point x="190" y="32"/>
      <point x="160" y="37"/>
      <point x="125" y="52" type="curve"/>
      <point x="165" y="21" type="line"/>
      <point x="145" y="93" type="line" smooth="yes"/>
      <point x="131" y="145"/>
      <point x="118" y="160"/>
      <point x="88" y="160" type="curve" smooth="yes"/>
      <point x="65" y="160"/>
      <point x="47" y="149"/>
      <point x="38" y="127" type="curve"/>
      <point x="60" y="33"/>
      <point x="123" y="-13"/>
      <point x="224" y="-13" type="curve" smooth="yes"/>
      <point x="363" y="-13"/>
      <point x="455" y="74"/>
      <point x="455" y="202" type="curve" smooth="yes"/>
      <point x="455" y="335"/>
      <point x="366" y="407"/>
      <point x="237" y="407" type="curve" smooth="yes"/>
      <point x="188" y="407"/>
      <point x="146" y="398"/>
      <point x="99" y="380" type="curve"/>
    </contour>
  </outline>
</glyph>
<glyph name="six" format="2">
  <advance width="497"/>
  <unicode hex="0036"/>
  <outline>
    <contour>
      <point x="257" y="32" type="curve" smooth="yes"/>
      <point x="176" y="32"/>
      <point x="126" y="113"/>
      <point x="126" y="285" type="curve" smooth="yes"/>
      <point x="126" y="469"/>
      <point x="213" y="577"/>
      <point x="426" y="629" type="curve"/>
      <point x="420" y="660" type="line"/>
      <point x="172" y="631"/>
      <point x="40" y="467"/>
      <point x="40" y="272" type="curve" smooth="yes"/>
      <point x="40" y="91"/>
      <point x="122" y="-13"/>
      <point x="255" y="-13" type="curve" smooth="yes"/>
      <point x="371" y="-13"/>
      <point x="458" y="59"/>
      <point x="458" y="202" type="curve" smooth="yes"/>
      <point x="458" y="322"/>
      <point x="383" y="397"/>
      <point x="275" y="397" type="curve" smooth="yes"/>
      <point x="208" y="397"/>
      <point x="142" y="360"/>
      <point x="97" y="292" type="curve"/>
      <point x="114" y="278" type="line"/>
      <point x="154" y="322"/>
      <point x="208" y="337"/>
      <point x="255" y="337" type="curve" smooth="yes"/>
      <point x="325" y="337"/>
      <point x="373" y="293"/>
      <point x="373" y="187" type="curve" smooth="yes"/>
      <point x="373" y="83"/>
      <point x="328" y="32"/>
    </contour>
  </outline>
</glyph>
<glyph name="seven" format="2">
  <advance width="497"/>
  <unicode hex="0037"/>
  <outline>
    <contour>
      <point x="134" y="10" type="line"/>
      <point x="144" y="0" type="line"/>
      <point x="223" y="0" type="line"/>
      <point x="461" y="597" type="line"/>
      <point x="461" y="647" type="line"/>
      <point x="50" y="647" type="line"/>
      <point x="50" y="567" type="line"/>
      <point x="427" y="567" type="line"/>
      <point x="410" y="597" type="line"/>
    </contour>
  </outline>
</glyph>
<glyph name="eight" format="2">
  <advance width="497"/>
  <unicode hex="0038"/>
  <outline>
    <contour>
      <point x="44" y="150" type="curve" smooth="yes"/>
      <point x="44" y="42"/>
      <point x="131" y="-13"/>
      <point x="250" y="-13" type="curve" smooth="yes"/>
      <point x="363" y="-13"/>
      <point x="452" y="57"/>
      <point x="452" y="157" type="curve" smooth="yes"/>
      <point x="452" y="252"/>
      <point x="397" y="303"/>
      <point x="285" y="355" type="curve" smooth="yes"/>
      <point x="170" y="408"/>
      <point x="142" y="459"/>
      <point x="142" y="514" type="curve" smooth="yes"/>
      <point x="142" y="576"/>
      <point x="192" y="615"/>
      <point x="249" y="615" type="curve" smooth="yes"/>
      <point x="313" y="615"/>
      <point x="349" y="564"/>
      <point x="349" y="503" type="curve" smooth="yes"/>
      <point x="349" y="440"/>
      <point x="322" y="400"/>
      <point x="240" y="345" type="curve"/>
      <point x="278" y="331" type="line"/>
      <point x="390" y="389"/>
      <point x="421" y="455"/>
      <point x="421" y="505" type="curve" smooth="yes"/>
      <point x="421" y="596"/>
      <point x="354" y="660"/>
      <point x="251" y="660" type="curve" smooth="yes"/>
      <point x="149" y="660"/>
      <point x="66" y="598"/>
      <point x="66" y="494" type="curve" smooth="yes"/>
      <point x="66" y="417"/>
      <point x="110" y="353"/>
      <point x="216" y="303" type="curve" smooth="yes"/>
      <point x="334" y="247"/>
      <point x="371" y="211"/>
      <point x="371" y="152" type="curve" smooth="yes"/>
      <point x="371" y="84"/>
      <point x="323" y="31"/>
      <point x="252" y="31" type="curve" smooth="yes"/>
      <point x="177" y="31"/>
      <point x="124" y="84"/>
      <point x="124" y="156" type="curve" smooth="yes"/>
      <point x="124" y="231"/>
      <point x="165" y="268"/>
      <point x="245" y="313" type="curve"/>
      <point x="202" y="327" type="line"/>
      <point x="99" y="278"/>
      <point x="44" y="227"/>
    </contour>
  </outline>
</glyph>
<glyph name="nine" format="2">
  <advance width="497"/>
  <unicode hex="0039"/>
  <outline>
    <contour>
      <point x="114" y="462" type="curve" smooth="yes"/>
      <point x="114" y="563"/>
      <point x="170" y="615"/>
      <point x="236" y="615" type="curve" smooth="yes"/>
      <point x="311" y="615"/>
      <point x="361" y="544"/>
      <point x="361" y="382" type="curve" smooth="yes"/>
      <point x="361" y="200"/>
      <point x="289" y="87"/>
      <point x="76" y="17" type="curve"/>
      <point x="86" y="-20" type="line"/>
      <point x="346" y="41"/>
      <point x="447" y="210"/>
      <point x="447" y="400" type="curve" smooth="yes"/>
      <point x="447" y="559"/>
      <point x="370" y="660"/>
      <point x="241" y="660" type="curve" smooth="yes"/>
      <point x="115" y="660"/>
      <point x="29" y="577"/>
      <point x="29" y="453" type="curve" smooth="yes"/>
      <point x="29" y="331"/>
      <point x="117" y="257"/>
      <point x="223" y="257" type="curve" smooth="yes"/>
      <point x="305" y="257"/>
      <point x="369" y="297"/>
      <point x="406" y="381" type="curve"/>
      <point x="389" y="388" type="line"/>
      <point x="349" y="339"/>
      <point x="307" y="317"/>
      <point x="248" y="317" type="curve" smooth="yes"/>
      <point x="173" y="317"/>
      <point x="114" y="359"/>
    </contour>
  </outline>
</glyph>
<glyph name="A" format="2">
  <advance width="663"/>
  <unicode hex="0041"/>
  <anchor x="321" y="691" name="aboveUC"/>
  <anchor x="312" y="-22" name="belowLC"/>
  <anchor x="560" y="0" name="ogonek"/>
  <outline>
    <contour>
      <point x="5" y="0" type="line"/>
      <point x="235" y="0" type="line"/>
      <point x="235" y="40" type="line"/>
      <point x="125" y="55" type="line"/>
      <point x="105" y="55" type="line"/>
      <point x="5" y="40" type="line"/>
    </contour>
    <contour>
      <point x="71" y="0" type="line"/>
      <point x="118" y="0" type="line"/>
      <point x="322" y="599" type="line"/>
      <point x="299" y="599" type="line"/>
      <point x="500" y="0" type="line"/>
      <point x="593" y="0" type="line"/>
      <point x="363" y="675" type="line"/>
      <point x="303" y="675" type="line"/>
    </contour>
    <contour>
      <point x="170" y="219" type="line"/>
      <point x="472" y="219" type="line"/>
      <point x="456" y="265" type="line"/>
      <point x="186" y="265" type="line"/>
    </contour>
    <contour>
      <point x="383" y="0" type="line"/>
      <point x="653" y="0" type="line"/>
      <point x="653" y="40" type="line"/>
      <point x="529" y="55" type="line"/>
      <point x="509" y="55" type="line"/>
      <point x="383" y="40" type="line"/>
    </contour>
  </outline>
</glyph>
<glyph name="v" format="2">
  <advance width="504"/>
  <unicode hex="0076"/>
  <anchor x="263" y="506" name="aboveLC"/>
  <anchor x="254" y="-22" name="belowLC"/>
  <outline>
    <contour>
      <point x="424" y="419" type="line"/>
      <point x="494" y="436" type="line"/>
      <point x="494" y="474" type="line"/>
      <point x="304" y="474" type="line"/>
      <point x="304" y="436" type="line"/>
      <point x="404" y="419" type="line"/>
    </contour>
    <contour>
      <point x="35" y="474" type="line"/>
      <point x="237" y="-6" type="line"/>
      <point x="278" y="-6" type="line"/>
      <point x="460" y="474" type="line"/>
      <point x="406" y="474" type="line"/>
      <point x="245" y="15" type="line"/>
      <point x="286" y="67" type="line"/>
      <point x="130" y="474" type="line"/>
    </contour>
    <contour>
      <point x="118" y="419" type="line"/>
      <point x="240" y="436" type="line"/>
      <point x="240" y="474" type="line"/>
      <point x="0" y="474" type="line"/>
      <point x="0" y="436" type="line"/>
      <point x="98" y="419" type="line"/>
    </contour>
  </outline>
</glyph>
<glyph name="z" format="2">
  <advance width="455"/>
  <unicode hex="007A"/>
  <anchor x="239" y="506" name="aboveLC"/>
  <anchor x="241" y="-22" name="belowLC"/>
  <outline>
    <contour>
      <point x="44" y="474" type="line"/>
      <point x="36" y="325" type="line"/>
      <point x="86" y="321" type="line"/>
      <point x="123" y="474" type="line"/>
      <point x="87" y="432" type="line"/>
      <point x="349" y="432" type="line"/>
      <point x="349" y="474" type="line"/>
      <point x="30" y="35" type="line"/>
      <point x="30" y="0" type="line"/>
      <point x="420" y="0" type="line"/>
      <point x="430" y="163" type="line"/>
      <point x="380" y="163" type="line"/>
      <point x="340" y="0" type="line"/>
      <point x="384" y="42" type="line"/>
      <point x="97" y="42" type="line"/>
      <point x="97" y="0" type="line"/>
      <point x="415" y="439" type="line"/>
      <point x="415" y="474" type="line"/>
    </contour>
  </outline>
</glyph>
<glyph name="logicalnot" format="2">
  <advance width="530"/>
  <unicode hex="00AC"/>
  <outline>
    <contour>
      <point x="24" y="344" type="line"/>
      <point x="453" y="344" type="line"/>
      <point x="436" y="364" type="line"/>
      <point x="436" y="160" type="line"/>
      <point x="496" y="160" type="line"/>
      <point x="496" y="400" type="line"/>
      <point x="24" y="400" type="line"/>
    </contour>
  </outline>
</glyph>
<glyph name="onequarter" format="2">
  <advance width="860"/>
  <unicode hex="00BC"/>
  <outline>
    <contour>
      <point x="80" y="625" type="line"/>
      <point x="80" y="589" type="line"/>
      <point x="158" y="595" type="line"/>
      <point x="158" y="254" type="line"/>
      <point x="227" y="254" type="line"/>
      <point x="227" y="651" type="line"/>
      <point x="218" y="657" type="line"/>
    </contour>
    <contour>
      <point x="221" y="300" type="line"/>
      <point x="162" y="300" type="line"/>
      <point x="67" y="283" type="line"/>
      <point x="67" y="254" type="line"/>
      <point x="315" y="254" type="line"/>
      <point x="315" y="283" type="line"/>
    </contour>
    <contour>
      <point x="480" y="101" type="line"/>
      <point x="778" y="101" type="line"/>
      <point x="778" y="158" type="line"/>
      <point x="510" y="158" type="line"/>
      <point x="519" y="144" type="line"/>
      <point x="665" y="353" type="line"/>
      <point x="651" y="353" type="line"/>
      <point x="651" y="0" type="line"/>
      <point x="714" y="0" type="line"/>
      <point x="714" y="403" type="line"/>
      <point x="668" y="403" type="line"/>
      <point x="480" y="147" type="line"/>
    </contour>
    <component base="fraction" xOffset="385"/>
  </outline>
</glyph>
<glyph name="Oslash" format="2">
  <advance width="707"/>
  <unicode hex="00D8"/>
  <anchor x="353" y="691" name="aboveUC"/>
  <outline>
    <contour>
      <point x="646" y="657" type="line"/>
      <point x="604" y="690" type="line"/>
      <point x="52" y="13" type="line"/>
      <point x="94" y="-20" type="line"/>
    </contour>
    <component base="O"/>
  </outline>
</glyph>
<glyph name="oslash" format="2">
  <advance width="548"/>
  <unicode hex="00F8"/>
  <anchor x="274" y="506" name="aboveLC"/>
  <outline>
    <contour>
      <point x="486" y="475" type="line"/>
      <point x="454" y="500" type="line"/>
      <point x="54" y="5" type="line"/>
      <point x="86" y="-20" type="line"/>
    </contour>
    <component base="o"/>
  </outline>
</glyph>
<glyph name="dcaron" format="2">
  <advance width="600"/>
  <unicode hex="010F"/>
  <outline>
    <contour>
      <point x="606" y="740" type="curve" smooth="yes"/>
      <point x="591" y="740"/>
      <point x="576" y="736"/>
      <point x="560" y="728" type="curve"/>
      <point x="557" y="518" type="line"/>
      <point x="588" y="518" type="line"/>
      <point x="607" y="572" type="line" smooth="yes"/>
      <point x="623" y="619"/>
      <point x="641" y="675"/>
      <point x="641" y="704" type="curve" smooth="yes"/>
      <point x="641" y="726"/>
      <point x="631" y="740"/>
    </contour>
    <component base="d"/>
  </outline>
</glyph>
<glyph name="Lcaron" format="2">
  <advance width="597"/>
  <unicode hex="013D"/>
  <outline>
    <contour>
      <point x="478" y="740" type="curve" smooth="yes"/>
      <point x="463" y="740"/>
      <point x="448" y="736"/>
      <point x="432" y="728" type="curve"/>
      <point x="429" y="518" type="line"/>
      <point x="460" y="518" type="line"/>
      <point x="479" y="572" type="line" smooth="yes"/>
      <point x="495" y="619"/>
      <point x="513" y="675"/>
      <point x="513" y="704" type="curve" smooth="yes"/>
      <point x="513" y="726"/>
      <point x="503" y="740"/>
    </contour>
    <component base="L"/>
  </outline>
</glyph>
<glyph name="lcaron" format="2">
  <advance width="321"/>
  <unicode hex="013E"/>
  <outline>
    <contour>
      <point x="327" y="740" type="curve" smooth="yes"/>
      <point x="312" y="740"/>
      <point x="297" y="736"/>
      <point x="281" y="728" type="curve"/>
      <point x="278" y="518" type="line"/>
      <point x="309" y="518" type="line"/>
      <point x="328" y="572" type="line" smooth="yes"/>
      <point x="344" y="619"/>
      <point x="362" y="675"/>
      <point x="362" y="704" type="curve" smooth="yes"/>
      <point x="362" y="726"/>
      <point x="352" y="740"/>
    </contour>
    <component base="l"/>
  </outline>
</glyph>
<glyph name="tcaron" format="2">
  <advance width="323"/>
  <unicode hex="0165"/>
  <outline>
    <contour>
      <point x="297" y="740" type="curve" smooth="yes"/>
      <point x="282" y="740"/>
      <point x="267" y="736"/>
      <point x="251" y="728" type="curve"/>
      <point x="248" y="518" type="line"/>
      <point x="279" y="518" type="line"/>
      <point x="298" y="572" type="line" smooth="yes"/>
      <point x="314" y="619"/>
      <point x="332" y="675"/>
      <point x="332" y="704" type="curve" smooth="yes"/>
      <point x="332" y="726"/>
      <point x="322" y="740"/>
    </contour>
    <component base="t"/>
  </outline>
</glyph>
<glyph name="macroncmb" format="2">
  <unicode hex="0304"/>
  <anchor x="0" y="506" name="_aboveLC"/>
  <outline>
    <contour>
      <point x="-129" y="597" type="line"/>
      <point x="129" y="597" type="line"/>
      <point x="129" y="658" type="line"/>
      <point x="-129" y="658" type="line"/>
    </contour>
  </outline>
</glyph>
<glyph name="perthousand" format="2">
  <advance width="1195"/>
  <unicode hex="2030"/>
  <outline>
    <contour>
      <point x="928" y="198" type="curve" smooth="yes"/>
      <point x="928" y="342"/>
      <point x="962" y="372"/>
      <point x="997" y="372" type="curve" smooth="yes"/>
      <point x="1032" y="372"/>
      <point x="1064" y="341"/>
      <point x="1064" y="198" type="curve" smooth="yes"/>
      <point x="1064" y="55"/>
      <point x="1032" y="24"/>
      <point x="997" y="24" type="curve" smooth="yes"/>
      <point x="962" y="24"/>
      <point x="928" y="55"/>
    </contour>
    <contour>
      <point x="997" y="406" type="curve" smooth="yes"/>
      <point x="926" y="406"/>
      <point x="857" y="344"/>
      <point x="857" y="198" type="curve" smooth="yes"/>
      <point x="857" y="53"/>
      <point x="926" y="-9"/>
      <point x="997" y="-9" type="curve" smooth="yes"/>
      <point x="1067" y="-9"/>
      <point x="1135" y="53"/>
      <point x="1135" y="198" type="curve" smooth="yes"/>
      <point x="1135" y="344"/>
      <point x="1067" y="406"/>
    </contour>
    <component base="percent"/>
  </outline>
</glyph>
<glyph name="lozenge" format="2">
  <advance width="580"/>
  <unicode hex="25CA"/>
  <outline>
    <contour>
      <point x="441" y="325" type="line"/>
      <point x="290" y="25" type="line"/>
      <point x="139" y="325" type="line"/>
      <point x="290" y="620" type="line"/>
    </contour>
    <contour>
      <point x="495" y="325" type="line"/>
      <point x="296" y="700" type="line"/>
      <point x="284" y="700" type="line"/>
      <point x="85" y="325" type="line"/>
      <point x="284" y="-55" type="line"/>
      <point x="296" y="-55" type="line"/>
    </contour>
  </outline>
</glyph>
<glyph name="threeemdash" format="2">
  <advance width="2270"/>
  <unicode hex="2E3B"/>
  <outline>
    <contour>
      <point x="40" y="219" type="line"/>
      <point x="2230" y="219" type="line"/>
      <point x="2230" y="283" type="line"/>
      <point x="40" y="283" type="line"/>
    </contour>
  </outline>
</glyph>
<glyph name="uniE602" format="2">
  <advance width="578"/>
  <unicode hex="E602"/>
  <outline>
    <contour>
      <point x="89" y="51" type="line"/>
      <point x="153" y="-13" type="line"/>
      <point x="175" y="0" type="line"/>
      <point x="154" y="470" type="line"/>
      <point x="89" y="470" type="line"/>
    </contour>
    <contour>
      <point x="404" y="51" type="line"/>
      <point x="467" y="-13" type="line"/>
      <point x="489" y="0" type="line"/>
      <point x="489" y="460" type="line"/>
      <point x="420" y="483" type="line"/>
    </contour>
    <contour>
      <point x="89" y="460" type="line"/>
      <point x="489" y="460" type="line"/>
      <point x="489" y="481" type="line"/>
      <point x="418" y="554" type="line"/>
      <point x="28" y="554" type="line"/>
      <point x="15" y="534" type="line"/>
    </contour>
  </outline>
</glyph>
<glyph name="uniE603" format="2">
  <advance width="521"/>
  <unicode hex="E603"/>
  <outline>
    <contour>
      <point x="296" y="110" type="line"/>
      <point x="243" y="164" type="line"/>
      <point x="223" y="164" type="line"/>
      <point x="223" y="26" type="line"/>
      <point x="276" y="-27" type="line"/>
      <point x="296" y="-18" type="line"/>
    </contour>
    <contour>
      <point x="422" y="366" type="curve" smooth="yes"/>
      <point x="422" y="293"/>
      <point x="353" y="229"/>
      <point x="249" y="229" type="curve" smooth="yes"/>
      <point x="168" y="229"/>
      <point x="99" y="269"/>
      <point x="99" y="338" type="curve" smooth="yes"/>
      <point x="99" y="406"/>
      <point x="169" y="474"/>
      <point x="272" y="474" type="curve" smooth="yes"/>
      <point x="353" y="474"/>
      <point x="422" y="434"/>
    </contour>
    <contour>
      <point x="471" y="350" type="curve" smooth="yes"/>
      <point x="471" y="459"/>
      <point x="402" y="566"/>
      <point x="256" y="566" type="curve" smooth="yes"/>
      <point x="128" y="566"/>
      <point x="50" y="470"/>
      <point x="50" y="357" type="curve" smooth="yes"/>
      <point x="50" y="247"/>
      <point x="119" y="140"/>
      <point x="266" y="140" type="curve" smooth="yes"/>
      <point x="393" y="140"/>
      <point x="471" y="237"/>
    </contour>
  </outline>
</glyph>
<glyph name="uniE604" format="2">
  <advance width="560"/>
  <unicode hex="E604"/>
  <outline>
    <contour>
      <point x="441" y="101" type="curve" smooth="yes"/>
      <point x="441" y="26"/>
      <point x="373" y="-37"/>
      <point x="269" y="-37" type="curve" smooth="yes"/>
      <point x="187" y="-37"/>
      <point x="119" y="3"/>
      <point x="119" y="71" type="curve" smooth="yes"/>
      <point x="119" y="139"/>
      <point x="188" y="208"/>
      <point x="292" y="208" type="curve" smooth="yes"/>
      <point x="373" y="208"/>
      <point x="441" y="168"/>
    </contour>
    <contour>
      <point x="491" y="83" type="curve" smooth="yes"/>
      <point x="491" y="193"/>
      <point x="422" y="300"/>
      <point x="276" y="300" type="curve" smooth="yes"/>
      <point x="148" y="300"/>
      <point x="69" y="203"/>
      <point x="69" y="92" type="curve" smooth="yes"/>
      <point x="69" y="-20"/>
      <point x="139" y="-127"/>
      <point x="286" y="-127" type="curve" smooth="yes"/>
      <point x="413" y="-127"/>
      <point x="491" y="-29"/>
    </contour>
    <contour>
      <point x="242" y="466" type="line"/>
      <point x="242" y="286" type="line"/>
      <point x="295" y="233" type="line"/>
      <point x="317" y="245" type="line"/>
      <point x="317" y="425" type="line"/>
      <point x="264" y="477" type="line"/>
    </contour>
    <contour>
      <point x="114" y="455" type="line"/>
      <point x="503" y="455" type="line"/>
      <point x="516" y="474" type="line"/>
      <point x="436" y="554" type="line"/>
      <point x="48" y="554" type="line"/>
      <point x="35" y="534" type="line"/>
    </contour>
  </outline>
</glyph>
<glyph name="uniE606" format="2">
  <advance width="615"/>
  <unicode hex="E606"/>
  <outline>
    <contour>
      <point x="146" y="211" type="curve" smooth="yes"/>
      <point x="146" y="383"/>
      <point x="225" y="467"/>
      <point x="336" y="467" type="curve" smooth="yes"/>
      <point x="442" y="467"/>
      <point x="492" y="400"/>
      <point x="492" y="317" type="curve" smooth="yes"/>
      <point x="492" y="231"/>
      <point x="432" y="129"/>
      <point x="336" y="71" type="curve"/>
      <point x="355" y="46"/>
      <point x="385" y="15"/>
      <point x="416" y="-9" type="curve"/>
      <point x="507" y="87"/>
      <point x="547" y="199"/>
      <point x="547" y="298" type="curve" smooth="yes"/>
      <point x="547" y="446"/>
      <point x="458" y="566"/>
      <point x="318" y="566" type="curve" smooth="yes"/>
      <point x="171" y="566"/>
      <point x="84" y="445"/>
      <point x="84" y="241" type="curve" smooth="yes"/>
      <point x="84" y="163"/>
      <point x="84" y="-200"/>
      <point x="84" y="-200" type="curve"/>
      <point x="148" y="-263" type="line"/>
      <point x="170" y="-251" type="line"/>
      <point x="162" y="-90"/>
      <point x="146" y="109"/>
    </contour>
  </outline>
</glyph>
<glyph name="uniE609" format="2">
  <advance width="670"/>
  <unicode hex="E609"/>
  <outline>
    <contour>
      <point x="501" y="75" type="curve" smooth="yes"/>
      <point x="424" y="75"/>
      <point x="359" y="271"/>
      <point x="359" y="297" type="curve"/>
      <point x="324" y="372" type="line"/>
      <point x="314" y="320"/>
      <point x="232" y="75"/>
      <point x="138" y="75" type="curve" smooth="yes"/>
      <point x="94" y="75"/>
      <point x="71" y="130"/>
      <point x="62" y="163" type="curve"/>
      <point x="15" y="147" type="line"/>
      <point x="26" y="99"/>
      <point x="58" y="-15"/>
      <point x="156" y="-15" type="curve" smooth="yes"/>
      <point x="303" y="-15"/>
      <point x="403" y="296"/>
      <point x="403" y="485" type="curve"/>
      <point x="328" y="560" type="line"/>
      <point x="306" y="548" type="line"/>
      <point x="298" y="527"/>
      <point x="286" y="472"/>
      <point x="286" y="418" type="curve" smooth="yes"/>
      <point x="286" y="302"/>
      <point x="368" y="-15"/>
      <point x="523" y="-15" type="curve" smooth="yes"/>
      <point x="621" y="-15"/>
      <point x="655" y="99"/>
      <point x="660" y="117" type="curve"/>
      <point x="620" y="177" type="line"/>
      <point x="600" y="177" type="line"/>
      <point x="589" y="149"/>
      <point x="565" y="75"/>
    </contour>
  </outline>
</glyph>
<glyph name="uniE60B" format="2">
  <advance width="455"/>
  <unicode hex="E60B"/>
  <outline>
    <contour>
      <point x="401" y="-11" type="line"/>
      <point x="315" y="65"/>
      <point x="212" y="145"/>
      <point x="93" y="213" type="curve"/>
      <point x="20" y="292" type="line"/>
      <point x="20" y="312" type="line"/>
      <point x="144" y="381"/>
      <point x="271" y="467"/>
      <point x="363" y="561" type="curve"/>
      <point x="386" y="561" type="line"/>
      <point x="440" y="506" type="line"/>
      <point x="348" y="412"/>
      <point x="211" y="323"/>
      <point x="139" y="278" type="curve"/>
      <point x="139" y="278"/>
      <point x="139" y="268"/>
      <point x="139" y="268" type="curve"/>
      <point x="231" y="215"/>
      <point x="356" y="113"/>
      <point x="439" y="35" type="curve"/>
    </contour>
  </outline>
</glyph>
<glyph name="uniE60F" format="2">
  <advance width="571"/>
  <unicode hex="E60F"/>
  <outline>
    <contour>
      <point x="207" y="188"/>
      <point x="143" y="268"/>
      <point x="64" y="306" type="curve"/>
      <point x="53" y="286" type="line"/>
      <point x="95" y="199" type="line"/>
      <point x="151" y="157"/>
      <point x="230" y="52"/>
      <point x="274" y="-37" type="curve"/>
      <point x="294" y="-25" type="line"/>
      <point x="320" y="125"/>
      <point x="367" y="280"/>
      <point x="430" y="430" type="curve"/>
      <point x="393" y="507" type="line"/>
      <point x="369" y="507" type="line"/>
      <point x="318" y="380"/>
      <point x="278" y="247"/>
      <point x="251" y="118" type="curve"/>
      <point x="242" y="118" type="line"/>
    </contour>
    <contour>
      <point x="172" y="460" type="line"/>
      <point x="571" y="460" type="line"/>
      <point x="571" y="481" type="line"/>
      <point x="500" y="554" type="line"/>
      <point x="110" y="554" type="line"/>
      <point x="97" y="534" type="line"/>
    </contour>
  </outline>
</glyph>
<glyph name="uniE616" format="2">
  <advance width="550"/>
  <unicode hex="E616"/>
  <outline>
    <contour>
      <point x="412" y="328" type="line"/>
      <point x="382" y="372"/>
      <point x="323" y="412"/>
      <point x="246" y="412" type="curve" smooth="yes"/>
      <point x="134" y="412"/>
      <point x="50" y="312"/>
      <point x="50" y="196" type="curve" smooth="yes"/>
      <point x="50" y="90"/>
      <point x="127" y="-15"/>
      <point x="267" y="-15" type="curve" smooth="yes"/>
      <point x="368" y="-15"/>
      <point x="492" y="52"/>
      <point x="495" y="209" type="curve" smooth="yes"/>
      <point x="498" y="385"/>
      <point x="374" y="548"/>
      <point x="218" y="680" type="curve"/>
      <point x="196" y="667" type="line"/>
      <point x="188" y="583" type="line"/>
      <point x="271" y="504"/>
      <point x="376" y="395"/>
      <point x="405" y="328" type="curve"/>
    </contour>
    <contour>
      <point x="99" y="183" type="curve" smooth="yes"/>
      <point x="99" y="262"/>
      <point x="170" y="321"/>
      <point x="282" y="321" type="curve" smooth="yes"/>
      <point x="370" y="321"/>
      <point x="440" y="285"/>
      <point x="440" y="216" type="curve" smooth="yes"/>
      <point x="440" y="141"/>
      <point x="363" y="78"/>
      <point x="254" y="78" type="curve" smooth="yes"/>
      <point x="163" y="78"/>
      <point x="99" y="114"/>
    </contour>
  </outline>
</glyph>
<glyph name="uniE61D" format="2">
  <advance width="586"/>
  <unicode hex="E61D"/>
  <outline>
    <contour>
      <point x="576" y="21" type="curve"/>
      <point x="527" y="-13" type="line"/>
      <point x="455" y="110"/>
      <point x="365" y="299"/>
      <point x="320" y="426" type="curve"/>
      <point x="320" y="426"/>
      <point x="310" y="426"/>
      <point x="310" y="426" type="curve"/>
      <point x="271" y="323"/>
      <point x="182" y="129"/>
      <point x="97" y="-13" type="curve"/>
      <point x="74" y="-13" type="line"/>
      <point x="20" y="43" type="line"/>
      <point x="107" y="192"/>
      <point x="194" y="366"/>
      <point x="265" y="551" type="curve"/>
      <point x="288" y="564" type="line"/>
      <point x="368" y="490" type="line"/>
      <point x="427" y="311"/>
      <point x="506" y="151"/>
    </contour>
  </outline>
</glyph>
<glyph name="uniE61E" format="2">
  <advance width="391"/>
  <unicode hex="E61E"/>
  <outline>
    <contour>
      <point x="15" y="48" type="curve"/>
      <point x="25" y="-15" type="line"/>
      <point x="48" y="-15" type="line"/>
      <point x="371" y="450" type="line"/>
      <point x="361" y="559" type="line"/>
      <point x="339" y="571" type="line"/>
      <point x="220" y="391"/>
      <point x="112" y="220"/>
    </contour>
  </outline>
</glyph>
<glyph name="uniE61F" format="2">
  <advance width="670"/>
  <unicode hex="E61F"/>
  <outline>
    <contour>
      <point x="138" y="75" type="curve" smooth="yes"/>
      <point x="94" y="75"/>
      <point x="71" y="130"/>
      <point x="62" y="163" type="curve"/>
      <point x="15" y="147" type="line"/>
      <point x="26" y="99"/>
      <point x="58" y="-15"/>
      <point x="156" y="-15" type="curve" smooth="yes"/>
      <point x="300" y="-15"/>
      <point x="395" y="277"/>
      <point x="395" y="402" type="curve"/>
      <point x="320" y="481" type="line"/>
      <point x="313" y="481" type="line"/>
      <point x="303" y="467"/>
      <point x="288" y="418"/>
      <point x="288" y="372" type="curve" smooth="yes"/>
      <point x="288" y="289"/>
      <point x="369" y="-15"/>
      <point x="523" y="-15" type="curve" smooth="yes"/>
      <point x="621" y="-15"/>
      <point x="655" y="99"/>
      <point x="660" y="117" type="curve"/>
      <point x="620" y="177" type="line"/>
      <point x="600" y="177" type="line"/>
      <point x="589" y="149"/>
      <point x="565" y="75"/>
      <point x="501" y="75" type="curve" smooth="yes"/>
      <point x="426" y="75"/>
      <point x="355" y="271"/>
      <point x="355" y="297" type="curve"/>
      <point x="355" y="297"/>
      <point x="324" y="372"/>
      <point x="324" y="372" type="curve"/>
      <point x="314" y="320"/>
      <point x="232" y="75"/>
    </contour>
    <contour>
      <point x="352" y="681" type="curve" smooth="yes"/>
      <point x="416" y="681"/>
      <point x="464" y="658"/>
      <point x="464" y="615" type="curve" smooth="yes"/>
      <point x="464" y="567"/>
      <point x="407" y="519"/>
      <point x="316" y="518" type="curve" smooth="yes"/>
      <point x="254" y="518"/>
      <point x="204" y="542"/>
      <point x="204" y="584" type="curve" smooth="yes"/>
      <point x="204" y="633"/>
      <point x="263" y="681"/>
    </contour>
    <contour>
      <point x="336" y="767" type="curve" smooth="yes"/>
      <point x="222" y="766"/>
      <point x="157" y="685"/>
      <point x="157" y="595" type="curve" smooth="yes"/>
      <point x="157" y="505"/>
      <point x="218" y="432"/>
      <point x="332" y="432" type="curve" smooth="yes"/>
      <point x="447" y="432"/>
      <point x="513" y="514"/>
      <point x="513" y="604" type="curve" smooth="yes"/>
      <point x="513" y="694"/>
      <point x="451" y="767"/>
    </contour>
  </outline>
</glyph>
<glyph name="macroncmb.cap" format="2">
  <anchor x="0" y="691" name="_aboveUC"/>
  <outline>
    <contour>
      <point x="-150" y="760" type="line"/>
      <point x="150" y="760" type="line"/>
      <point x="150" y="821" type="line"/>
      <point x="-150" y="821" type="line"/>
    </contour>
  </outline>
</glyph>
